<?xml version="1.0"?>
<svg version="1.1" xmlns="http://www.w3.org/2000/svg" width="270" height="45" style=""><path fill="#fc7341" d="M22.326,19.836c0,1.443-1.258,2.331-2.479,2.331s-2.516-0.814-2.516-2.294s1.221-2.368,2.516-2.368c1.258,0,2.479,0.851,2.479,2.331z M22.104,41.555c0,0.666-0.296,0.925-0.925,0.925l-2.59,0c-0.666,0-0.962-0.259-0.962-0.925l0-16.169c0-0.629,0.37-0.851,0.962-0.851l2.59,0c0.592,0,0.925,0.185,0.925,0.851l0,16.169z M45.2845,41.518c0,0.629-0.222,0.962-0.888,0.962l-2.664,0c-0.666,0-0.888-0.333-0.888-0.962l0-10.064c0-2.035-0.555-3.478-2.812-3.478c-1.443,0-3.219,0.777-4.366,1.776l0,11.803c0,0.629-0.259,0.925-0.888,0.925l-2.701,0c-0.555,0-0.888-0.296-0.888-0.888l0-16.132c0-0.592,0.259-0.925,0.925-0.925l2.405,0c0.518,0,0.851,0.148,0.888,0.703l0.037,0.962c1.702-1.369,3.848-2.146,5.994-2.146c4.144,0,5.846,2.59,5.846,6.623l0,10.841z M63.322,41.37c0,0.37-0.185,0.555-0.555,0.703c-1.147,0.481-2.664,0.851-4.144,0.851c-1.887,0-3.515-0.481-4.44-1.554c-1.147-1.295-1.184-2.812-1.184-5.513l0-8.251l-1.739,0c-0.703,0-0.814-0.148-0.814-0.925l0-1.406c0-0.444,0.222-0.74,0.666-0.74l1.887,0l0-4.033c0-0.629,0.333-0.814,0.925-0.888l2.664-0.333l0.185,0c0.481,0,0.703,0.259,0.703,0.814l0,4.44l4.181,0c0.444,0,0.703,0.148,0.703,0.629l0,1.739c0,0.444-0.296,0.703-0.74,0.703l-4.144,0l0,8.473c0,1.11,0.074,1.924,0.481,2.516c0.333,0.481,0.851,0.777,1.739,0.777c0.925,0,1.702-0.222,2.368-0.444c0.148-0.037,0.259-0.074,0.37-0.074c0.259,0,0.407,0.148,0.481,0.444l0.37,1.85c0.037,0.111,0.037,0.148,0.037,0.222z M84.0975,33.452c0,0.888-0.296,1.073-1.221,1.073l-10.841,0c0.296,2.849,2.368,4.81,5.291,4.81c1.554,0,3.182-0.37,4.551-0.888c0.148-0.037,0.259-0.111,0.407-0.111c0.259,0,0.444,0.148,0.518,0.444l0.518,1.887c0.037,0.185,0.074,0.333,0.074,0.444c0,0.259-0.148,0.444-0.592,0.629c-1.813,0.814-4.292,1.184-6.216,1.184c-5.809,0-9.25-3.7-9.25-9.472c0-5.55,3.663-9.398,9.176-9.398c2.257,0,4.107,0.851,5.402,2.22c1.702,1.776,2.183,4.107,2.183,6.623l0,0.555z M79.6945,31.602l0-0.407c-0.074-1.924-1.184-3.7-3.441-3.7c-2.405,0-3.848,1.924-4.144,4.107l7.585,0z M99.804,24.683c0,0.111,0,0.222-0.037,0.333l-0.407,2.627c-0.037,0.333-0.222,0.481-0.518,0.481l-0.148,0c-0.296-0.074-0.666-0.111-0.999-0.111c-1.258,0-2.627,0.666-3.552,1.776l0,11.766c0,0.592-0.259,0.925-0.888,0.925l-2.701,0c-0.592,0-0.888-0.296-0.888-0.925l0-11.544l0-4.551c0-0.74,0.37-0.925,0.925-0.925l2.368,0c0.592,0,0.925,0.185,0.925,0.703l0.037,1.184c1.147-1.443,2.405-2.368,4.477-2.368c0.296,0,0.703,0.074,1.036,0.148c0.259,0.074,0.37,0.185,0.37,0.481z M119.8025,25.053c0,0.111-0.037,0.222-0.074,0.37l-6.475,16.354c-0.222,0.555-0.518,0.703-1.073,0.703l-1.924,0c-0.555,0-0.925-0.148-1.11-0.666l-6.364-16.502c-0.037-0.111-0.074-0.222-0.074-0.333c0-0.296,0.185-0.444,0.666-0.444l3.256,0c0.629,0,0.925,0.259,1.073,0.74l2.812,8.621c0.37,1.11,0.703,2.331,0.925,3.145l0.037,0c0.185-0.703,0.555-1.998,0.888-3.034l2.886-8.695c0.185-0.629,0.481-0.777,1.147-0.777l2.664,0c0.481,0,0.74,0.185,0.74,0.518z M129.737,19.836c0,1.443-1.258,2.331-2.479,2.331s-2.516-0.814-2.516-2.294s1.221-2.368,2.516-2.368c1.258,0,2.479,0.851,2.479,2.331z M129.515,41.555c0,0.666-0.296,0.925-0.925,0.925l-2.59,0c-0.666,0-0.962-0.259-0.962-0.925l0-16.169c0-0.629,0.37-0.851,0.962-0.851l2.59,0c0.592,0,0.925,0.185,0.925,0.851l0,16.169z M152.2885,33.452c0,0.888-0.296,1.073-1.221,1.073l-10.841,0c0.296,2.849,2.368,4.81,5.291,4.81c1.554,0,3.182-0.37,4.551-0.888c0.148-0.037,0.259-0.111,0.407-0.111c0.259,0,0.444,0.148,0.518,0.444l0.518,1.887c0.037,0.185,0.074,0.333,0.074,0.444c0,0.259-0.148,0.444-0.592,0.629c-1.813,0.814-4.292,1.184-6.216,1.184c-5.809,0-9.25-3.7-9.25-9.472c0-5.55,3.663-9.398,9.176-9.398c2.257,0,4.107,0.851,5.402,2.22c1.702,1.776,2.183,4.107,2.183,6.623l0,0.555z M147.8855,31.602l0-0.407c-0.074-1.924-1.184-3.7-3.441-3.7c-2.405,0-3.848,1.924-4.144,4.107l7.585,0z M181.648,25.016c0,0.111,0,0.185-0.037,0.296l-4.958,16.28c-0.185,0.555-0.481,0.888-1.147,0.888l-2.516,0c-0.666,0-0.962-0.333-1.147-0.925l-3.071-10.545l-0.074,0l-3.034,10.619c-0.185,0.592-0.518,0.851-1.184,0.851l-2.479,0c-0.592,0-0.999-0.37-1.147-0.888l-4.847-16.28c-0.037-0.111-0.037-0.222-0.037-0.296c0-0.333,0.259-0.481,0.74-0.481l3.034,0c0.703,0,0.925,0.259,1.036,0.703l2.664,11.692l0.037,0l3.441-11.655c0.148-0.555,0.518-0.74,0.999-0.74l2.072,0c0.555,0,0.888,0.185,0.999,0.629l3.367,11.84l0.037,0l2.775-11.655c0.111-0.518,0.407-0.814,1.073-0.814l2.849,0c0.444,0,0.555,0.222,0.555,0.481z M202.8305,35.006c0,5.143-4.181,7.918-8.991,7.918c-2.22,0-4.847-0.407-7.067-1.184c-0.481-0.185-0.629-0.407-0.629-0.703c0-0.148,0-0.296,0.074-0.481l0.777-2.405c0.111-0.37,0.296-0.592,0.666-0.592c0.148,0,0.333,0.037,0.555,0.111c1.739,0.629,3.663,1.11,5.513,1.11c1.998,0,4.255-0.962,4.255-3.293c0-1.702-1.258-2.627-2.701-3.33l-4.81-2.405c-2.627-1.295-4.366-3.478-4.366-6.364c0-4.514,4.44-6.993,8.547-6.993c2.442,0,4.477,0.37,6.623,1.295c0.481,0.222,0.74,0.444,0.74,0.74c0,0.148-0.037,0.296-0.111,0.481l-0.888,2.257c-0.148,0.407-0.37,0.555-0.629,0.555c-0.185,0-0.37-0.074-0.592-0.148c-1.517-0.629-3.404-1.147-4.884-1.147c-1.739,0-3.737,0.74-3.737,2.812c0,1.517,1.406,2.405,2.627,2.997l4.107,1.998c2.923,1.406,4.921,3.367,4.921,6.771z M224.531,33.452c0,0.888-0.296,1.073-1.221,1.073l-10.841,0c0.296,2.849,2.368,4.81,5.291,4.81c1.554,0,3.182-0.37,4.551-0.888c0.148-0.037,0.259-0.111,0.407-0.111c0.259,0,0.444,0.148,0.518,0.444l0.518,1.887c0.037,0.185,0.074,0.333,0.074,0.444c0,0.259-0.148,0.444-0.592,0.629c-1.813,0.814-4.292,1.184-6.216,1.184c-5.809,0-9.25-3.7-9.25-9.472c0-5.55,3.663-9.398,9.176-9.398c2.257,0,4.107,0.851,5.402,2.22c1.702,1.776,2.183,4.107,2.183,6.623l0,0.555z M220.128,31.602l0-0.407c-0.074-1.924-1.184-3.7-3.441-3.7c-2.405,0-3.848,1.924-4.144,4.107l7.585,0z M240.2375,24.683c0,0.111,0,0.222-0.037,0.333l-0.407,2.627c-0.037,0.333-0.222,0.481-0.518,0.481l-0.148,0c-0.296-0.074-0.666-0.111-0.999-0.111c-1.258,0-2.627,0.666-3.552,1.776l0,11.766c0,0.592-0.259,0.925-0.888,0.925l-2.701,0c-0.592,0-0.888-0.296-0.888-0.925l0-11.544l0-4.551c0-0.74,0.37-0.925,0.925-0.925l2.368,0c0.592,0,0.925,0.185,0.925,0.703l0.037,1.184c1.147-1.443,2.405-2.368,4.477-2.368c0.296,0,0.703,0.074,1.036,0.148c0.259,0.074,0.37,0.185,0.37,0.481z M260.236,25.053c0,0.111-0.037,0.222-0.074,0.37l-6.475,16.354c-0.222,0.555-0.518,0.703-1.073,0.703l-1.924,0c-0.555,0-0.925-0.148-1.11-0.666l-6.364-16.502c-0.037-0.111-0.074-0.222-0.074-0.333c0-0.296,0.185-0.444,0.666-0.444l3.256,0c0.629,0,0.925,0.259,1.073,0.74l2.812,8.621c0.37,1.11,0.703,2.331,0.925,3.145l0.037,0c0.185-0.703,0.555-1.998,0.888-3.034l2.886-8.695c0.185-0.629,0.481-0.777,1.147-0.777l2.664,0c0.481,0,0.74,0.185,0.74,0.518z"/><path fill="#" d=""/></svg>
