<?xml version="1.0"?>
<svg version="1.1" xmlns="http://www.w3.org/2000/svg" width="328" height="50" style=""><path fill="#fc7341" d="M23.91,21.76c0,1.755-1.53,2.835-3.015,2.835s-3.06-0.99-3.06-2.79s1.485-2.88,3.06-2.88c1.53,0,3.015,1.035,3.015,2.835z M23.64,48.175c0,0.81-0.36,1.125-1.125,1.125l-3.15,0c-0.81,0-1.17-0.315-1.17-1.125l0-19.665c0-0.765,0.45-1.035,1.17-1.035l3.15,0c0.72,0,1.125,0.225,1.125,1.035l0,19.665z M51.8325,48.13c0,0.765-0.27,1.17-1.08,1.17l-3.24,0c-0.81,0-1.08-0.405-1.08-1.17l0-12.24c0-2.475-0.675-4.23-3.42-4.23c-1.755,0-3.915,0.945-5.31,2.16l0,14.355c0,0.765-0.315,1.125-1.08,1.125l-3.285,0c-0.675,0-1.08-0.36-1.08-1.08l0-19.62c0-0.72,0.315-1.125,1.125-1.125l2.925,0c0.63,0,1.035,0.18,1.08,0.855l0.045,1.17c2.07-1.665,4.68-2.61,7.29-2.61c5.04,0,7.11,3.15,7.11,8.055l0,13.185z M73.77,47.95c0,0.45-0.225,0.675-0.675,0.855c-1.395,0.585-3.24,1.035-5.04,1.035c-2.295,0-4.275-0.585-5.4-1.89c-1.395-1.575-1.44-3.42-1.44-6.705l0-10.035l-2.115,0c-0.855,0-0.99-0.18-0.99-1.125l0-1.71c0-0.54,0.27-0.9,0.81-0.9l2.295,0l0-4.905c0-0.765,0.405-0.99,1.125-1.08l3.24-0.405l0.225,0c0.585,0,0.855,0.315,0.855,0.99l0,5.4l5.085,0c0.54,0,0.855,0.18,0.855,0.765l0,2.115c0,0.54-0.36,0.855-0.9,0.855l-5.04,0l0,10.305c0,1.35,0.09,2.34,0.585,3.06c0.405,0.585,1.035,0.945,2.115,0.945c1.125,0,2.07-0.27,2.88-0.54c0.18-0.045,0.315-0.09,0.45-0.09c0.315,0,0.495,0.18,0.585,0.54l0.45,2.25c0.045,0.135,0.045,0.18,0.045,0.27z M99.0375,38.32c0,1.08-0.36,1.305-1.485,1.305l-13.185,0c0.36,3.465,2.88,5.85,6.435,5.85c1.89,0,3.87-0.45,5.535-1.08c0.18-0.045,0.315-0.135,0.495-0.135c0.315,0,0.54,0.18,0.63,0.54l0.63,2.295c0.045,0.225,0.09,0.405,0.09,0.54c0,0.315-0.18,0.54-0.72,0.765c-2.205,0.99-5.22,1.44-7.56,1.44c-7.065,0-11.25-4.5-11.25-11.52c0-6.75,4.455-11.43,11.16-11.43c2.745,0,4.995,1.035,6.57,2.7c2.07,2.16,2.655,4.995,2.655,8.055l0,0.675z M93.6825,36.07l0-0.495c-0.09-2.34-1.44-4.5-4.185-4.5c-2.925,0-4.68,2.34-5.04,4.995l9.225,0z M118.14,27.655c0,0.135,0,0.27-0.045,0.405l-0.495,3.195c-0.045,0.405-0.27,0.585-0.63,0.585l-0.18,0c-0.36-0.09-0.81-0.135-1.215-0.135c-1.53,0-3.195,0.81-4.32,2.16l0,14.31c0,0.72-0.315,1.125-1.08,1.125l-3.285,0c-0.72,0-1.08-0.36-1.08-1.125l0-14.04l0-5.535c0-0.9,0.45-1.125,1.125-1.125l2.88,0c0.72,0,1.125,0.225,1.125,0.855l0.045,1.44c1.395-1.755,2.925-2.88,5.445-2.88c0.36,0,0.855,0.09,1.26,0.18c0.315,0.09,0.45,0.225,0.45,0.585z M142.4625,28.105c0,0.135-0.045,0.27-0.09,0.45l-7.875,19.89c-0.27,0.675-0.63,0.855-1.305,0.855l-2.34,0c-0.675,0-1.125-0.18-1.35-0.81l-7.74-20.07c-0.045-0.135-0.09-0.27-0.09-0.405c0-0.36,0.225-0.54,0.81-0.54l3.96,0c0.765,0,1.125,0.315,1.305,0.9l3.42,10.485c0.45,1.35,0.855,2.835,1.125,3.825l0.045,0c0.225-0.855,0.675-2.43,1.08-3.69l3.51-10.575c0.225-0.765,0.585-0.945,1.395-0.945l3.24,0c0.585,0,0.9,0.225,0.9,0.63z M154.545,21.76c0,1.755-1.53,2.835-3.015,2.835s-3.06-0.99-3.06-2.79s1.485-2.88,3.06-2.88c1.53,0,3.015,1.035,3.015,2.835z M154.275,48.175c0,0.81-0.36,1.125-1.125,1.125l-3.15,0c-0.81,0-1.17-0.315-1.17-1.125l0-19.665c0-0.765,0.45-1.035,1.17-1.035l3.15,0c0.72,0,1.125,0.225,1.125,1.035l0,19.665z M181.9725,38.32c0,1.08-0.36,1.305-1.485,1.305l-13.185,0c0.36,3.465,2.88,5.85,6.435,5.85c1.89,0,3.87-0.45,5.535-1.08c0.18-0.045,0.315-0.135,0.495-0.135c0.315,0,0.54,0.18,0.63,0.54l0.63,2.295c0.045,0.225,0.09,0.405,0.09,0.54c0,0.315-0.18,0.54-0.72,0.765c-2.205,0.99-5.22,1.44-7.56,1.44c-7.065,0-11.25-4.5-11.25-11.52c0-6.75,4.455-11.43,11.16-11.43c2.745,0,4.995,1.035,6.57,2.7c2.07,2.16,2.655,4.995,2.655,8.055l0,0.675z M176.6175,36.07l0-0.495c-0.09-2.34-1.44-4.5-4.185-4.5c-2.925,0-4.68,2.34-5.04,4.995l9.225,0z M217.68,28.06c0,0.135,0,0.225-0.045,0.36l-6.03,19.8c-0.225,0.675-0.585,1.08-1.395,1.08l-3.06,0c-0.81,0-1.17-0.405-1.395-1.125l-3.735-12.825l-0.09,0l-3.69,12.915c-0.225,0.72-0.63,1.035-1.44,1.035l-3.015,0c-0.72,0-1.215-0.45-1.395-1.08l-5.895-19.8c-0.045-0.135-0.045-0.27-0.045-0.36c0-0.405,0.315-0.585,0.9-0.585l3.69,0c0.855,0,1.125,0.315,1.26,0.855l3.24,14.22l0.045,0l4.185-14.175c0.18-0.675,0.63-0.9,1.215-0.9l2.52,0c0.675,0,1.08,0.225,1.215,0.765l4.095,14.4l0.045,0l3.375-14.175c0.135-0.63,0.495-0.99,1.305-0.99l3.465,0c0.54,0,0.675,0.27,0.675,0.585z M243.4425,40.21c0,6.255-5.085,9.63-10.935,9.63c-2.7,0-5.895-0.495-8.595-1.44c-0.585-0.225-0.765-0.495-0.765-0.855c0-0.18,0-0.36,0.09-0.585l0.945-2.925c0.135-0.45,0.36-0.72,0.81-0.72c0.18,0,0.405,0.045,0.675,0.135c2.115,0.765,4.455,1.35,6.705,1.35c2.43,0,5.175-1.17,5.175-4.005c0-2.07-1.53-3.195-3.285-4.05l-5.85-2.925c-3.195-1.575-5.31-4.23-5.31-7.74c0-5.49,5.4-8.505,10.395-8.505c2.97,0,5.445,0.45,8.055,1.575c0.585,0.27,0.9,0.54,0.9,0.9c0,0.18-0.045,0.36-0.135,0.585l-1.08,2.745c-0.18,0.495-0.45,0.675-0.765,0.675c-0.225,0-0.45-0.09-0.72-0.18c-1.845-0.765-4.14-1.395-5.94-1.395c-2.115,0-4.545,0.9-4.545,3.42c0,1.845,1.71,2.925,3.195,3.645l4.995,2.43c3.555,1.71,5.985,4.095,5.985,8.235z M269.835,38.32c0,1.08-0.36,1.305-1.485,1.305l-13.185,0c0.36,3.465,2.88,5.85,6.435,5.85c1.89,0,3.87-0.45,5.535-1.08c0.18-0.045,0.315-0.135,0.495-0.135c0.315,0,0.54,0.18,0.63,0.54l0.63,2.295c0.045,0.225,0.09,0.405,0.09,0.54c0,0.315-0.18,0.54-0.72,0.765c-2.205,0.99-5.22,1.44-7.56,1.44c-7.065,0-11.25-4.5-11.25-11.52c0-6.75,4.455-11.43,11.16-11.43c2.745,0,4.995,1.035,6.57,2.7c2.07,2.16,2.655,4.995,2.655,8.055l0,0.675z M264.48,36.07l0-0.495c-0.09-2.34-1.44-4.5-4.185-4.5c-2.925,0-4.68,2.34-5.04,4.995l9.225,0z M288.9375,27.655c0,0.135,0,0.27-0.045,0.405l-0.495,3.195c-0.045,0.405-0.27,0.585-0.63,0.585l-0.18,0c-0.36-0.09-0.81-0.135-1.215-0.135c-1.53,0-3.195,0.81-4.32,2.16l0,14.31c0,0.72-0.315,1.125-1.08,1.125l-3.285,0c-0.72,0-1.08-0.36-1.08-1.125l0-14.04l0-5.535c0-0.9,0.45-1.125,1.125-1.125l2.88,0c0.72,0,1.125,0.225,1.125,0.855l0.045,1.44c1.395-1.755,2.925-2.88,5.445-2.88c0.36,0,0.855,0.09,1.26,0.18c0.315,0.09,0.45,0.225,0.45,0.585z M313.26,28.105c0,0.135-0.045,0.27-0.09,0.45l-7.875,19.89c-0.27,0.675-0.63,0.855-1.305,0.855l-2.34,0c-0.675,0-1.125-0.18-1.35-0.81l-7.74-20.07c-0.045-0.135-0.09-0.27-0.09-0.405c0-0.36,0.225-0.54,0.81-0.54l3.96,0c0.765,0,1.125,0.315,1.305,0.9l3.42,10.485c0.45,1.35,0.855,2.835,1.125,3.825l0.045,0c0.225-0.855,0.675-2.43,1.08-3.69l3.51-10.575c0.225-0.765,0.585-0.945,1.395-0.945l3.24,0c0.585,0,0.9,0.225,0.9,0.63z"/><path fill="#" d=""/></svg>
